<?xml version="1.0" encoding="UTF-8" standalone="no"?>
<!-- Svg Vector Icons : http://www.onlinewebfonts.com/icon -->

<svg
   xmlns:dc="http://purl.org/dc/elements/1.1/"
   xmlns:cc="http://creativecommons.org/ns#"
   xmlns:rdf="http://www.w3.org/1999/02/22-rdf-syntax-ns#"
   xmlns:svg="http://www.w3.org/2000/svg"
   xmlns="http://www.w3.org/2000/svg"
   xmlns:sodipodi="http://sodipodi.sourceforge.net/DTD/sodipodi-0.dtd"
   xmlns:inkscape="http://www.inkscape.org/namespaces/inkscape"
   version="1.1"
   x="0px"
   y="0px"
   viewBox="0 0 1000 1000"
   enable-background="new 0 0 1000 1000"
   xml:space="preserve"
   id="svg3754"
   sodipodi:docname="bell_snoozed.svg"
   inkscape:version="0.92.3 (2405546, 2018-03-11)"><defs
   id="defs3758" /><sodipodi:namedview
   pagecolor="#ffffff"
   bordercolor="#666666"
   borderopacity="1"
   objecttolerance="10"
   gridtolerance="10"
   guidetolerance="10"
   inkscape:pageopacity="0"
   inkscape:pageshadow="2"
   inkscape:window-width="1920"
   inkscape:window-height="1080"
   id="namedview3756"
   showgrid="false"
   inkscape:zoom="0.236"
   inkscape:cx="-186.44068"
   inkscape:cy="500"
   inkscape:window-x="0"
   inkscape:window-y="-30"
   inkscape:window-maximized="1"
   inkscape:current-layer="g3750" />
<metadata
   id="metadata3742"> Svg Vector Icons : http://www.onlinewebfonts.com/icon <rdf:RDF><cc:Work
     rdf:about=""><dc:format>image/svg+xml</dc:format><dc:type
       rdf:resource="http://purl.org/dc/dcmitype/StillImage" /></cc:Work></rdf:RDF></metadata>
<g
   id="g3752"><g
     transform="translate(0.000000,511.000000) scale(0.100000,-0.100000)"
     id="g3750"><path
       d="M5733.8,4526.9v-483.1h954.7c524.5,0,954.7-6.9,954.7-13.8c0-9.2-427.9-549.8-950.1-1203.1c-522.2-653.3-957-1200.8-968.5-1214.7c-13.8-23,384.2-29.9,1950.8-29.9h1969.2v483.1v483.1h-957c-832.8,0-954.7,4.6-945.5,34.5c9.2,18.4,409.5,526.8,894.9,1131.8c485.4,605,915.6,1143.3,957,1198.5l78.2,96.6H7703H5733.8V4526.9z"
       id="path3744"
       style="fill:#e6e6e6" /><path
       d="M4240.8,3984c-963.9-161-1840.4-869.6-2215.4-1785.2C1839.2,1741,1800,1405.2,1800,280.2c0-733.9-4.6-823.6-46-989.2c-92-354.3-276.1-648.7-545.2-871.9c-188.6-154.1-331.3-230-628-335.9l-241.5-85.1l-6.9-657.9l-4.6-657.9h4416.9h4416.9l-4.6,657.9l-6.9,657.9l-241.6,85.1c-296.8,105.8-439.4,181.7-628,335.9c-269.2,223.1-453.2,517.6-545.2,871.9c-39.1,158.7-46,255.3-46,743v559h-483.1H6723V20.3c0-621.1,25.3-839.7,128.8-1150.2c133.4-393.4,381.9-791.3,674.1-1067.4c75.9-73.6,140.3-138,140.3-144.9c0-4.6-1313.6-9.2-2921.6-9.2c-1605.7,0-2921.6,4.6-2921.6,9.2c0,6.9,62.1,71.3,140.3,144.9c324.4,308.2,600.4,782.1,724.6,1237.6c62.1,230,62.1,230,78.2,1288.3c13.8,986.9,18.4,1069.7,66.7,1242.3c200.1,738.5,782.2,1299.8,1502.2,1447c96.6,20.7,230,36.8,294.5,36.8h115v483.1v483.1l-154.1-2.3C4503.1,4016.2,4346.7,4002.4,4240.8,3984z"
       id="path3746"
       style="fill:#e6e6e6" /><path
       d="M3088.3-3844.5c0-39.1,200.1-292.1,326.7-409.5c354.3-331.2,860.4-536,1329.7-536c469.3,0,975.4,204.8,1329.7,536c126.5,117.3,326.7,370.4,326.7,409.5c0,11.5-703.9,20.7-1656.3,20.7C3792.3-3823.8,3088.3-3833,3088.3-3844.5z"
       id="path3748"
       style="fill:#e6e6e6" /></g></g>
</svg>